<?xml version="1.0" encoding="UTF-8"?>
<svg xmlns="http://www.w3.org/2000/svg" xmlns:xlink="http://www.w3.org/1999/xlink" width="170.079" height="170.079" viewBox="0 0 170.079 170.079">
<path fill-rule="nonzero" fill="#B81F3A" fill-opacity="1" d="M 152.558594 85.921875 C 150.207031 85.921875 148.183594 85.476562 146.46875 84.308594 C 144.015625 82.636719 141.675781 80.789062 139.367188 78.914062 C 136.191406 76.335938 133.085938 73.671875 129.957031 71.035156 C 126.675781 68.273438 123.398438 65.5 120.117188 62.734375 C 116.46875 59.664062 112.820312 56.59375 109.175781 53.527344 C 105.980469 50.84375 102.789062 48.15625 99.59375 45.476562 C 96.488281 42.875 93.378906 40.277344 90.273438 37.675781 C 88.625 36.296875 86.949219 34.960938 85.347656 33.53125 C 84.625 32.882812 84.058594 33.082031 83.464844 33.585938 C 79.335938 37.070312 75.226562 40.578125 71.085938 44.054688 C 66.949219 47.527344 62.78125 50.960938 58.644531 54.4375 C 55.023438 57.472656 51.425781 60.542969 47.820312 63.597656 C 47.007812 64.28125 46.191406 64.957031 45.222656 65.765625 C 44.359375 63.515625 43.855469 61.382812 44.007812 59.140625 C 44.027344 58.8125 44.417969 58.476562 44.695312 58.207031 C 47.035156 55.921875 49.402344 53.667969 51.734375 51.375 C 56.542969 46.652344 61.332031 41.910156 66.132812 37.1875 C 68.609375 34.757812 71.054688 32.292969 73.59375 29.933594 C 79.761719 24.207031 89.273438 24.082031 95.273438 29.972656 C 101.246094 35.835938 107.242188 41.675781 113.226562 47.53125 C 116.390625 50.621094 119.546875 53.71875 122.707031 56.8125 C 125.757812 59.796875 128.804688 62.78125 131.855469 65.765625 C 134.90625 68.746094 137.945312 71.742188 141.011719 74.710938 C 144.53125 78.113281 148.074219 81.496094 151.601562 84.894531 C 151.875 85.15625 152.125 85.449219 152.558594 85.921875 "/>
<path fill-rule="nonzero" fill="#1A2845" fill-opacity="1" d="M 84.253906 73.480469 C 79.1875 81.246094 72.5 85.871094 63.3125 86.261719 C 54.113281 86.648438 47.035156 82.5625 41.355469 75.15625 C 41.320312 75.871094 41.285156 85.039062 41.289062 85.050781 C 41.285156 85.046875 37.871094 86.160156 36.523438 86.515625 L 36.523438 20 C 38.039062 19.769531 39.570312 19.539062 41.285156 19.28125 C 41.285156 27.089844 41.453125 42.433594 41.457031 42.484375 C 48.453125 34.046875 57.035156 30.253906 67.785156 32.269531 C 66.277344 33.757812 64.589844 35.355469 63.167969 36.8125 C 63.128906 36.851562 62.679688 36.859375 62.265625 36.867188 C 50.300781 37.09375 42.558594 46.792969 41.652344 56.335938 C 40.867188 64.632812 43.515625 71.582031 50.070312 76.734375 C 58.449219 83.320312 69.738281 82.21875 77.136719 74.328125 C 77.40625 74.042969 78.011719 73.480469 77.980469 73.464844 C 77.960938 73.457031 82.351562 73.480469 84.253906 73.480469 "/>
<path fill-rule="nonzero" fill="#1A2845" fill-opacity="1" d="M 19.792969 100.25 C 63.140625 83.960938 106.519531 83.980469 149.894531 100.261719 C 128.46875 95.566406 106.757812 93.304688 84.828125 93.304688 C 62.914062 93.300781 41.222656 95.558594 19.792969 100.25 "/>
<path fill-rule="nonzero" fill="#1A2845" fill-opacity="1" d="M 109.765625 64.078125 C 113.246094 64.058594 116.09375 65.136719 118.566406 67.125 C 122.132812 69.992188 125.628906 72.941406 129.140625 75.878906 C 133.082031 79.175781 141.585938 86.136719 142.039062 86.554688 C 142.117188 86.542969 134.035156 86.789062 133.785156 86.542969 C 133.480469 86.539062 110.058594 64.398438 109.765625 64.078125 "/>
<path fill-rule="nonzero" fill="#B81F3A" fill-opacity="1" d="M 16.171875 86.097656 C 22.214844 80.238281 28.0625 74.574219 34.125 68.703125 C 34.125 70.988281 34.136719 73.007812 34.109375 75.023438 C 34.105469 75.222656 33.917969 75.472656 33.746094 75.609375 C 30.261719 78.410156 26.816406 81.257812 23.257812 83.960938 C 21.195312 85.527344 18.605469 86.210938 16.171875 86.097656 "/>
<path fill-rule="nonzero" fill="#1A2845" fill-opacity="1" d="M 76.589844 42.851562 C 77.957031 41.710938 79.214844 40.664062 80.578125 39.527344 C 84.300781 43.492188 86.589844 48.089844 87.683594 53.527344 C 86.058594 53.527344 82.546875 53.53125 82.546875 53.53125 C 82.503906 53.207031 82.40625 52.988281 82.367188 52.847656 C 81.300781 49.070312 79.410156 45.769531 76.589844 42.851562 "/>
<path fill-rule="nonzero" fill="#B81F3A" fill-opacity="1" d="M 82.9375 62.296875 L 76.472656 62.296875 L 76.472656 55.832031 L 82.9375 55.832031 Z M 82.9375 62.296875 "/>
<path fill-rule="nonzero" fill="#B81F3A" fill-opacity="1" d="M 92.011719 62.296875 L 85.546875 62.296875 L 85.546875 55.832031 L 92.011719 55.832031 Z M 92.011719 62.296875 "/>
<path fill-rule="nonzero" fill="#B81F3A" fill-opacity="1" d="M 82.9375 71.125 L 76.472656 71.125 L 76.472656 64.660156 L 82.9375 64.660156 Z M 82.9375 71.125 "/>
<path fill-rule="nonzero" fill="#B81F3A" fill-opacity="1" d="M 92.011719 71.125 L 85.546875 71.125 L 85.546875 64.660156 L 92.011719 64.660156 Z M 92.011719 71.125 "/>
<path fill-rule="nonzero" fill="#1A2845" fill-opacity="1" d="M 48.347656 146.894531 C 49.179688 146.894531 49.726562 146.421875 49.726562 145.714844 L 49.726562 145.703125 C 49.726562 144.933594 49.1875 144.535156 48.375 144.535156 L 46.945312 144.558594 L 46.945312 146.917969 Z M 46.378906 144 L 48.417969 143.976562 C 49.554688 143.976562 50.300781 144.621094 50.300781 145.675781 L 50.300781 145.691406 C 50.300781 146.851562 49.394531 147.449219 48.328125 147.449219 L 46.945312 147.472656 L 46.945312 149.363281 L 46.378906 149.363281 Z M 46.378906 144 "/>
<path fill-rule="nonzero" fill="#1A2845" fill-opacity="1" d="M 58.964844 147.335938 L 57.820312 144.667969 L 56.671875 147.335938 Z M 57.5625 144.015625 L 58.09375 144.015625 L 60.382812 149.363281 L 59.773438 149.363281 L 59.1875 147.878906 L 56.449219 147.878906 L 55.855469 149.363281 L 55.273438 149.363281 Z M 57.5625 144.015625 "/>
<path fill-rule="nonzero" fill="#1A2845" fill-opacity="1" d="M 68.339844 146.816406 C 69.09375 146.816406 69.632812 146.320312 69.632812 145.632812 L 69.632812 145.617188 C 69.632812 144.957031 69.15625 144.558594 68.347656 144.558594 L 66.792969 144.558594 L 66.792969 146.816406 Z M 66.226562 144 L 68.390625 144 C 69.007812 144 69.503906 144.199219 69.816406 144.535156 C 70.0625 144.796875 70.207031 145.171875 70.207031 145.59375 L 70.207031 145.609375 C 70.207031 146.5 69.632812 147.101562 68.839844 147.253906 L 70.386719 149.375 L 69.6875 149.375 L 68.230469 147.359375 L 66.792969 147.359375 L 66.792969 149.375 L 66.226562 149.375 Z M 66.226562 144 "/>
<path fill-rule="nonzero" fill="#1A2845" fill-opacity="1" d="M 86.234375 144 L 86.765625 144 L 90.203125 148.300781 L 90.203125 144 L 90.753906 144 L 90.753906 149.367188 L 90.300781 149.367188 L 86.789062 144.96875 L 86.789062 149.367188 L 86.234375 149.367188 Z M 86.234375 144 "/>
<path fill-rule="nonzero" fill="#1A2845" fill-opacity="1" d="M 97.21875 144 L 100.851562 144 L 100.851562 144.550781 L 97.785156 144.550781 L 97.785156 146.382812 L 100.527344 146.382812 L 100.527344 146.933594 L 97.785156 146.933594 L 97.785156 148.8125 L 100.988281 148.8125 L 100.988281 149.363281 L 97.21875 149.363281 Z M 97.21875 144 "/>
<path fill-rule="nonzero" fill="#1A2845" fill-opacity="1" d="M 116.621094 148.582031 L 117.019531 148.136719 C 117.613281 148.644531 118.179688 148.894531 118.964844 148.894531 C 119.726562 148.894531 120.230469 148.515625 120.230469 147.984375 L 120.230469 147.96875 C 120.230469 147.472656 119.945312 147.1875 118.753906 146.949219 C 117.449219 146.683594 116.847656 146.285156 116.847656 145.402344 L 116.847656 145.386719 C 116.847656 144.542969 117.636719 143.921875 118.714844 143.921875 C 119.542969 143.921875 120.132812 144.144531 120.707031 144.582031 L 120.335938 145.050781 C 119.808594 144.644531 119.28125 144.46875 118.695312 144.46875 C 117.960938 144.46875 117.488281 144.851562 117.488281 145.332031 L 117.488281 145.347656 C 117.488281 145.855469 117.78125 146.136719 119.03125 146.390625 C 120.296875 146.652344 120.878906 147.089844 120.878906 147.910156 L 120.878906 147.921875 C 120.878906 148.84375 120.066406 149.441406 118.941406 149.441406 C 118.042969 149.441406 117.304688 149.15625 116.621094 148.582031 "/>
<path fill-rule="nonzero" fill="#1A2845" fill-opacity="1" d="M 25.480469 133.683594 C 28.273438 133.628906 29.761719 131.765625 29.828125 129.363281 L 29.828125 129.230469 C 29.628906 126.820312 28.351562 124.992188 24.410156 125.070312 L 17.105469 125.136719 L 17.105469 133.707031 Z M 24.148438 123.398438 C 27.597656 123.398438 28.878906 121.441406 28.878906 119.269531 L 28.878906 119.203125 C 28.792969 116.414062 27.335938 114.949219 23.867188 115.046875 L 17.136719 115.046875 L 17.105469 123.398438 Z M 15.34375 113.25 L 24.042969 113.25 C 27.203125 113.300781 28.214844 113.988281 29.382812 115.246094 C 30.230469 116.210938 30.667969 117.566406 30.667969 119.015625 L 30.695312 118.914062 C 30.601562 121.160156 30.3125 122.648438 28.117188 124.078125 C 29.730469 124.597656 31.5625 126.453125 31.570312 129.410156 L 31.570312 129.671875 C 31.441406 132.269531 30.277344 135.519531 24.421875 135.589844 L 15.34375 135.589844 Z M 15.34375 113.25 "/>
<path fill-rule="nonzero" fill="#1A2845" fill-opacity="1" d="M 35.761719 113.222656 L 50.59375 113.222656 L 50.59375 115.101562 L 37.613281 115.101562 L 37.613281 123.242188 L 48.953125 123.242188 L 48.953125 125.070312 L 37.613281 125.070312 L 37.613281 133.734375 L 50.769531 133.707031 L 50.769531 135.5625 L 35.761719 135.539062 Z M 35.761719 113.222656 "/>
<path fill-rule="nonzero" fill="#B81F3A" fill-opacity="1" d="M 103.742188 124.699219 L 103.742188 124.636719 C 103.742188 119.546875 99.839844 114.890625 95.167969 114.890625 C 90.5 114.890625 86.65625 119.484375 86.65625 124.574219 L 86.65625 124.636719 C 86.65625 129.726562 90.558594 133.886719 95.226562 133.886719 C 99.898438 133.886719 103.742188 129.789062 103.742188 124.699219 M 84.78125 124.699219 L 84.78125 124.636719 C 84.78125 118.460938 89.011719 113.050781 95.226562 113.050781 C 101.445312 113.050781 105.621094 118.394531 105.621094 124.574219 L 105.621094 124.636719 C 105.621094 130.816406 101.386719 135.707031 95.167969 135.707031 C 88.953125 135.707031 84.78125 130.878906 84.78125 124.699219 "/>
<path fill-rule="nonzero" fill="#1A2845" fill-opacity="1" d="M 75.816406 144.011719 L 75.816406 144.570312 L 77.730469 144.570312 L 77.730469 149.378906 L 78.308594 149.378906 L 78.308594 144.570312 L 80.222656 144.570312 L 80.222656 144.011719 Z M 75.816406 144.011719 "/>
<path fill-rule="nonzero" fill="#1A2845" fill-opacity="1" d="M 109.089844 146.816406 C 109.84375 146.816406 110.382812 146.320312 110.382812 145.632812 L 110.382812 145.617188 C 110.382812 144.957031 109.90625 144.558594 109.097656 144.558594 L 107.546875 144.558594 L 107.546875 146.816406 Z M 106.976562 144 L 109.140625 144 C 109.757812 144 110.253906 144.199219 110.566406 144.535156 C 110.8125 144.796875 110.957031 145.171875 110.957031 145.59375 L 110.957031 145.609375 C 110.957031 146.5 110.382812 147.101562 109.59375 147.253906 L 111.136719 149.375 L 110.4375 149.375 L 108.980469 147.359375 L 107.546875 147.359375 L 107.546875 149.375 L 106.976562 149.375 Z M 106.976562 144 "/>
<path fill-rule="nonzero" fill="#1A2845" fill-opacity="1" d="M 152.308594 147.230469 L 131.15625 147.230469 L 131.15625 146.839844 L 152.308594 146.839844 Z M 152.308594 147.230469 "/>
<path fill-rule="nonzero" fill="#1A2845" fill-opacity="1" d="M 36.632812 147.230469 L 15.480469 147.230469 L 15.480469 146.839844 L 36.632812 146.839844 Z M 36.632812 147.230469 "/>
<path fill-rule="nonzero" fill="#B81F3A" fill-opacity="1" d="M 137.003906 113.28125 L 151.835938 113.28125 L 151.835938 115.160156 L 138.855469 115.160156 L 138.855469 123.300781 L 150.195312 123.300781 L 150.195312 125.125 L 138.855469 125.125 L 138.855469 133.792969 L 152.011719 133.765625 L 152.011719 135.621094 L 137.003906 135.59375 Z M 137.003906 113.28125 "/>
<path fill-rule="nonzero" fill="#B81F3A" fill-opacity="1" d="M 129.75 113.222656 L 120.535156 128.75 L 120.445312 128.75 L 111.234375 113.222656 L 109.691406 113.222656 L 109.695312 135.613281 L 111.535156 135.613281 L 111.535156 117.441406 L 111.59375 117.441406 L 119.898438 131.316406 L 121.085938 131.316406 L 129.390625 117.441406 L 129.449219 117.441406 L 129.449219 135.613281 L 131.289062 135.613281 L 131.289062 113.222656 Z M 129.75 113.222656 "/>
<path fill-rule="nonzero" fill="#B81F3A" fill-opacity="1" d="M 78.835938 113.230469 L 78.835938 123.308594 L 65.25 123.308594 L 65.25 113.230469 L 63.4375 113.230469 L 63.4375 135.585938 L 65.25 135.585938 L 65.25 125.03125 L 78.835938 125.03125 L 78.835938 135.585938 L 80.648438 135.585938 L 80.648438 113.230469 Z M 78.835938 113.230469 "/>
</svg>
