<?xml version="1.0" encoding="UTF-8"?>
<svg xmlns="http://www.w3.org/2000/svg" xmlns:xlink="http://www.w3.org/1999/xlink" width="441.107" height="94.96" viewBox="0 0 441.107 94.96">
<path fill-rule="nonzero" fill="#8B1538" fill-opacity="1" d="M 143.109375 71.757812 C 140.75 71.761719 138.71875 71.3125 137 70.140625 C 134.539062 68.460938 132.191406 66.605469 129.875 64.726562 C 126.6875 62.140625 123.570312 59.464844 120.429688 56.820312 C 117.136719 54.046875 113.851562 51.265625 110.554688 48.492188 C 106.898438 45.410156 103.238281 42.332031 99.578125 39.253906 C 96.375 36.5625 93.171875 33.867188 89.964844 31.175781 C 86.847656 28.5625 83.730469 25.957031 80.613281 23.347656 C 78.960938 21.964844 77.277344 20.625 75.671875 19.1875 C 74.945312 18.539062 74.378906 18.742188 73.78125 19.246094 C 69.636719 22.742188 65.511719 26.261719 61.363281 29.746094 C 57.210938 33.234375 53.027344 36.679688 48.875 40.164062 C 45.242188 43.214844 41.636719 46.292969 38.015625 49.355469 C 37.203125 50.042969 36.382812 50.722656 35.410156 51.535156 C 34.542969 49.273438 34.039062 47.136719 34.1875 44.886719 C 34.210938 44.558594 34.601562 44.222656 34.882812 43.949219 C 37.230469 41.65625 39.605469 39.394531 41.945312 37.09375 C 46.769531 32.359375 51.570312 27.597656 56.390625 22.859375 C 58.875 20.417969 61.328125 17.949219 63.878906 15.582031 C 70.066406 9.835938 79.609375 9.707031 85.628906 15.617188 C 91.621094 21.503906 97.640625 27.363281 103.644531 33.238281 C 106.816406 36.339844 109.984375 39.445312 113.15625 42.550781 C 116.214844 45.542969 119.277344 48.539062 122.335938 51.53125 C 125.394531 54.527344 128.445312 57.53125 131.523438 60.507812 C 135.054688 63.925781 138.609375 67.320312 142.148438 70.726562 C 142.425781 70.992188 142.671875 71.285156 143.109375 71.757812 "/>
<path fill-rule="nonzero" fill="#1A2845" fill-opacity="1" d="M 74.574219 59.273438 C 69.488281 67.066406 62.777344 71.707031 53.558594 72.097656 C 44.328125 72.488281 37.226562 68.390625 31.527344 60.957031 C 31.492188 61.675781 31.457031 70.871094 31.460938 70.882812 C 31.457031 70.882812 28.035156 72 26.679688 72.355469 L 26.679688 5.613281 C 28.203125 5.382812 29.738281 5.152344 31.457031 4.890625 C 31.457031 12.726562 31.625 28.125 31.632812 28.175781 C 38.652344 19.710938 47.261719 15.902344 58.046875 17.925781 C 56.535156 19.417969 54.839844 21.019531 53.417969 22.480469 C 53.378906 22.523438 52.925781 22.53125 52.507812 22.539062 C 40.507812 22.765625 32.738281 32.496094 31.828125 42.070312 C 31.039062 50.394531 33.695312 57.371094 40.273438 62.539062 C 48.683594 69.148438 60.007812 68.042969 67.433594 60.125 C 67.703125 59.839844 68.3125 59.277344 68.277344 59.257812 C 68.261719 59.25 72.664062 59.273438 74.574219 59.273438 "/>
<path fill-rule="nonzero" fill="#1A2845" fill-opacity="1" d="M 9.894531 86.132812 C 53.390625 69.789062 96.914062 69.808594 140.433594 86.144531 C 118.9375 81.4375 97.152344 79.167969 75.152344 79.164062 C 53.164062 79.164062 31.398438 81.429688 9.894531 86.132812 "/>
<path fill-rule="nonzero" fill="#1A2845" fill-opacity="1" d="M 100.171875 49.84375 C 103.664062 49.820312 106.523438 50.902344 109.003906 52.898438 C 112.578125 55.773438 116.089844 58.734375 119.609375 61.679688 C 123.566406 64.988281 132.097656 71.972656 132.554688 72.394531 C 132.632812 72.378906 124.523438 72.628906 124.273438 72.378906 C 123.964844 72.375 100.464844 50.164062 100.171875 49.84375 "/>
<path fill-rule="nonzero" fill="#8B1538" fill-opacity="1" d="M 6.257812 71.933594 C 12.324219 66.054688 18.191406 60.375 24.277344 54.480469 C 24.277344 56.773438 24.285156 58.800781 24.257812 60.824219 C 24.257812 61.023438 24.066406 61.273438 23.894531 61.414062 C 20.398438 64.222656 16.941406 67.082031 13.371094 69.789062 C 11.300781 71.363281 8.703125 72.046875 6.257812 71.933594 "/>
<path fill-rule="nonzero" fill="#1A2845" fill-opacity="1" d="M 66.882812 28.542969 C 68.257812 27.398438 69.519531 26.34375 70.882812 25.207031 C 74.621094 29.1875 76.917969 33.796875 78.015625 39.25 C 76.386719 39.25 72.859375 39.257812 72.859375 39.257812 C 72.816406 38.933594 72.71875 38.710938 72.679688 38.574219 C 71.609375 34.78125 69.714844 31.472656 66.882812 28.542969 "/>
<path fill-rule="nonzero" fill="#8B1538" fill-opacity="1" d="M 73.25 48.054688 L 66.765625 48.054688 L 66.765625 41.566406 L 73.25 41.566406 Z M 73.25 48.054688 "/>
<path fill-rule="nonzero" fill="#8B1538" fill-opacity="1" d="M 82.359375 48.054688 L 75.871094 48.054688 L 75.871094 41.566406 L 82.359375 41.566406 Z M 82.359375 48.054688 "/>
<path fill-rule="nonzero" fill="#8B1538" fill-opacity="1" d="M 73.25 56.910156 L 66.765625 56.910156 L 66.765625 50.425781 L 73.25 50.425781 Z M 73.25 56.910156 "/>
<path fill-rule="nonzero" fill="#8B1538" fill-opacity="1" d="M 82.359375 56.910156 L 75.871094 56.910156 L 75.871094 50.425781 L 82.359375 50.425781 Z M 82.359375 56.910156 "/>
<path fill-rule="nonzero" fill="#1A2845" fill-opacity="1" d="M 232.234375 82.160156 C 233.839844 82.160156 234.894531 81.242188 234.894531 79.882812 L 234.894531 79.851562 C 234.894531 78.371094 233.855469 77.605469 232.289062 77.605469 L 229.527344 77.648438 L 229.527344 82.207031 Z M 228.433594 76.570312 L 232.371094 76.523438 C 234.5625 76.523438 236.003906 77.765625 236.003906 79.808594 L 236.003906 79.835938 C 236.003906 82.070312 234.257812 83.226562 232.191406 83.226562 L 229.527344 83.269531 L 229.527344 86.925781 L 228.433594 86.925781 Z M 228.433594 76.570312 "/>
<path fill-rule="nonzero" fill="#1A2845" fill-opacity="1" d="M 252.726562 83.007812 L 250.523438 77.855469 L 248.304688 83.007812 Z M 250.027344 76.597656 L 251.050781 76.597656 L 255.472656 86.925781 L 254.296875 86.925781 L 253.160156 84.058594 L 247.875 84.058594 L 246.726562 86.925781 L 245.601562 86.925781 Z M 250.027344 76.597656 "/>
<path fill-rule="nonzero" fill="#1A2845" fill-opacity="1" d="M 270.832031 82.007812 C 272.289062 82.007812 273.328125 81.050781 273.328125 79.71875 L 273.328125 79.691406 C 273.328125 78.417969 272.414062 77.648438 270.84375 77.648438 L 267.851562 77.648438 L 267.851562 82.007812 Z M 266.753906 76.570312 L 270.929688 76.570312 C 272.121094 76.570312 273.078125 76.953125 273.6875 77.605469 C 274.160156 78.109375 274.4375 78.832031 274.4375 79.644531 L 274.4375 79.675781 C 274.4375 81.394531 273.328125 82.554688 271.800781 82.851562 L 274.78125 86.945312 L 273.4375 86.945312 L 270.621094 83.054688 L 267.851562 83.054688 L 267.851562 86.945312 L 266.753906 86.945312 Z M 266.753906 76.570312 "/>
<path fill-rule="nonzero" fill="#1A2845" fill-opacity="1" d="M 305.382812 76.570312 L 306.410156 76.570312 L 313.042969 84.871094 L 313.042969 76.570312 L 314.109375 76.570312 L 314.109375 86.929688 L 313.238281 86.929688 L 306.453125 78.4375 L 306.453125 86.929688 L 305.382812 86.929688 Z M 305.382812 76.570312 "/>
<path fill-rule="nonzero" fill="#1A2845" fill-opacity="1" d="M 326.589844 76.570312 L 333.605469 76.570312 L 333.605469 77.632812 L 327.6875 77.632812 L 327.6875 81.171875 L 332.980469 81.171875 L 332.980469 82.234375 L 327.6875 82.234375 L 327.6875 85.863281 L 333.875 85.863281 L 333.875 86.925781 L 326.589844 86.925781 Z M 326.589844 76.570312 "/>
<path fill-rule="nonzero" fill="#1A2845" fill-opacity="1" d="M 364.054688 85.417969 L 364.824219 84.558594 C 365.964844 85.535156 367.0625 86.023438 368.578125 86.023438 C 370.050781 86.023438 371.023438 85.28125 371.023438 84.261719 L 371.023438 84.234375 C 371.023438 83.273438 370.476562 82.722656 368.171875 82.265625 C 365.652344 81.746094 364.492188 80.980469 364.492188 79.277344 L 364.492188 79.246094 C 364.492188 77.621094 366.011719 76.421875 368.09375 76.421875 C 369.691406 76.421875 370.832031 76.851562 371.945312 77.695312 L 371.226562 78.597656 C 370.207031 77.8125 369.191406 77.472656 368.0625 77.472656 C 366.640625 77.472656 365.730469 78.210938 365.730469 79.144531 L 365.730469 79.171875 C 365.730469 80.152344 366.292969 80.699219 368.707031 81.183594 C 371.144531 81.6875 372.273438 82.53125 372.273438 84.117188 L 372.273438 84.144531 C 372.273438 85.921875 370.710938 87.074219 368.53125 87.074219 C 366.796875 87.074219 365.371094 86.527344 364.054688 85.417969 "/>
<path fill-rule="nonzero" fill="#1A2845" fill-opacity="1" d="M 188.082031 56.648438 C 193.472656 56.546875 196.347656 52.949219 196.472656 48.304688 L 196.472656 48.054688 C 196.09375 43.398438 193.625 39.871094 186.015625 40.019531 L 171.910156 40.152344 L 171.910156 56.699219 Z M 185.511719 36.796875 C 192.171875 36.796875 194.640625 33.015625 194.640625 28.816406 L 194.640625 28.695312 C 194.476562 23.308594 191.667969 20.480469 184.964844 20.664062 L 171.96875 20.664062 L 171.910156 36.796875 Z M 168.511719 17.195312 L 185.304688 17.195312 C 191.40625 17.296875 193.363281 18.625 195.617188 21.050781 C 197.25 22.914062 198.09375 25.527344 198.09375 28.328125 L 198.152344 28.136719 C 197.972656 32.46875 197.410156 35.347656 193.167969 38.105469 C 196.289062 39.109375 199.820312 42.691406 199.84375 48.398438 L 199.84375 48.902344 C 199.59375 53.917969 197.347656 60.191406 186.035156 60.328125 L 168.511719 60.328125 Z M 168.511719 17.195312 "/>
<path fill-rule="nonzero" fill="#1A2845" fill-opacity="1" d="M 207.933594 17.144531 L 236.570312 17.144531 L 236.570312 20.773438 L 211.511719 20.773438 L 211.511719 36.492188 L 233.402344 36.492188 L 233.402344 40.015625 L 211.511719 40.015625 L 211.511719 56.75 L 236.90625 56.699219 L 236.90625 60.277344 L 207.933594 60.230469 Z M 207.933594 17.144531 "/>
<path fill-rule="nonzero" fill="#8B1538" fill-opacity="1" d="M 339.1875 39.304688 L 339.1875 39.183594 C 339.1875 29.355469 331.652344 20.359375 322.636719 20.359375 C 313.621094 20.359375 306.199219 29.234375 306.199219 39.058594 L 306.199219 39.183594 C 306.199219 49.011719 313.734375 57.042969 322.75 57.042969 C 331.765625 57.042969 339.1875 49.132812 339.1875 39.304688 M 302.574219 39.304688 L 302.574219 39.183594 C 302.574219 27.253906 310.746094 16.8125 322.75 16.8125 C 334.75 16.8125 342.8125 27.132812 342.8125 39.058594 L 342.8125 39.183594 C 342.8125 51.113281 334.636719 60.554688 322.636719 60.554688 C 310.636719 60.554688 302.574219 51.234375 302.574219 39.304688 "/>
<path fill-rule="nonzero" fill="#1A2845" fill-opacity="1" d="M 285.273438 76.59375 L 285.273438 77.671875 L 288.960938 77.671875 L 288.960938 86.949219 L 290.082031 86.949219 L 290.082031 77.671875 L 293.773438 77.671875 L 293.773438 76.59375 Z M 285.273438 76.59375 "/>
<path fill-rule="nonzero" fill="#1A2845" fill-opacity="1" d="M 349.511719 82.007812 C 350.96875 82.007812 352.007812 81.050781 352.007812 79.71875 L 352.007812 79.691406 C 352.007812 78.417969 351.089844 77.648438 349.523438 77.648438 L 346.53125 77.648438 L 346.53125 82.007812 Z M 345.433594 76.570312 L 349.609375 76.570312 C 350.800781 76.570312 351.757812 76.953125 352.367188 77.605469 C 352.839844 78.109375 353.117188 78.832031 353.117188 79.644531 L 353.117188 79.675781 C 353.117188 81.394531 352.007812 82.554688 350.480469 82.851562 L 353.464844 86.945312 L 352.117188 86.945312 L 349.300781 83.054688 L 346.53125 83.054688 L 346.53125 86.945312 L 345.433594 86.945312 Z M 345.433594 76.570312 "/>
<path fill-rule="nonzero" fill="#1A2845" fill-opacity="1" d="M 432.957031 82.804688 L 392.117188 82.804688 L 392.117188 82.054688 L 432.957031 82.054688 Z M 432.957031 82.804688 "/>
<path fill-rule="nonzero" fill="#1A2845" fill-opacity="1" d="M 209.617188 82.804688 L 168.773438 82.804688 L 168.773438 82.054688 L 209.617188 82.054688 Z M 209.617188 82.804688 "/>
<path fill-rule="nonzero" fill="#8B1538" fill-opacity="1" d="M 403.410156 17.257812 L 432.046875 17.257812 L 432.046875 20.882812 L 406.988281 20.882812 L 406.988281 36.601562 L 428.875 36.601562 L 428.875 40.128906 L 406.988281 40.128906 L 406.988281 56.859375 L 432.382812 56.808594 L 432.382812 60.386719 L 403.410156 60.339844 Z M 403.410156 17.257812 "/>
<path fill-rule="nonzero" fill="#8B1538" fill-opacity="1" d="M 389.402344 17.144531 L 371.613281 47.125 L 371.4375 47.125 L 353.652344 17.144531 L 350.675781 17.144531 L 350.679688 60.375 L 354.230469 60.375 L 354.230469 25.292969 L 354.347656 25.292969 L 370.378906 52.078125 L 372.671875 52.078125 L 388.707031 25.292969 L 388.820312 25.292969 L 388.820312 60.375 L 392.375 60.375 L 392.375 17.144531 Z M 389.402344 17.144531 "/>
<path fill-rule="nonzero" fill="#8B1538" fill-opacity="1" d="M 291.101562 17.160156 L 291.101562 36.621094 L 264.863281 36.621094 L 264.863281 17.160156 L 261.371094 17.160156 L 261.371094 60.320312 L 264.863281 60.320312 L 264.863281 39.945312 L 291.101562 39.945312 L 291.101562 60.320312 L 294.597656 60.320312 L 294.597656 17.160156 Z M 291.101562 17.160156 "/>
</svg>
